<svg xmlns="http://www.w3.org/2000/svg" viewBox="0 0 24 24" fill="white"><path d="M5 4c0 .5 3.5 1.75 7.373 8.372 0 0 2.092-2.181 3.127-2.872.75-.5 1.356-.666 1.356-.666C16.856 7.578 14.75 4 14 4H5z" opacity=".9"/><path d="M21.75 9.25c-.5-.334-1.825-.886-3.25-.75a7.473 7.473 0 0 0-1.644.334S16.25 9 15.5 9.5c-1.035.69-3.127 2.872-3.127 2.872-.714.699-1.525 1.366-2.623 1.878 0 0 3.5 1.5 5.75 1.5 2.531 0 3.5-1.75 3.5-1.75.75-1.652 1.75-3.5 2.75-4.75z" opacity=".9"/><path d="M2 8.75v8.5c0 .5 3 2.75 7.5 2.75 5 0 8.525-3.853 9.5-6 0 0-.969 1.75-3.5 1.75-2.25 0-5.75-1.5-5.75-1.5-2.559-1.12-5.015-3.289-6.453-4.559C2.987 8.977 2 8.547 2 8.75z" opacity=".9"/></svg>
