<svg xmlns="http://www.w3.org/2000/svg" viewBox="0 0 24 24" fill="white"><g transform="translate(12,12) scale(1.3) translate(-12,-12)"><path d="M8.123 12.877l1.424 3.941s.178.369.369.369 3.026-2.949 3.026-2.949l3.153-6.089-7.804 4.182-.168.546z" opacity=".6"/><path d="M10.011 13.888l-.273 2.905s-.114.89.775 0 1.742-1.576 1.742-1.576" opacity=".4"/><path d="M8.149 13.018l-2.93-.954s-.35-.142-.237-.464c.023-.066.07-.123.21-.22.649-.452 12.011-4.536 12.011-4.536s.321-.108.51-.036c.1.037.165.12.189.206a.936.936 0 0 1 .025.258c-.001.075-.01.145-.017.254-.069 1.117-2.14 9.449-2.14 9.449s-.124.488-.568.504a.813.813 0 0 1-.593-.213c-.871-.749-3.882-2.773-4.547-3.218a.127.127 0 0 1-.055-.09c-.009-.047.042-.105.042-.105s5.243-4.66 5.382-5.149c.011-.038-.03-.057-.085-.04-.348.128-6.384 3.94-7.051 4.361a.321.321 0 0 1-.148.013z"/></g></svg>
