<svg xmlns="http://www.w3.org/2000/svg" viewBox="0 0 24 24" fill="white"><path d="M16.761 8.617c.187 0 .37.012.553.024-.52-3.634-4.18-6.452-8.622-6.452C3.892 2.189 0 5.476 0 9.53c0 2.212 1.17 4.203 3.003 5.549a.59.59 0 01.213.666c-.146.553-.38 1.439-.392 1.48-.018.07-.046.142-.046.215 0 .162.13.293.29.293a.324.324 0 00.167-.054l1.902-1.113a.859.859 0 01.718-.097 10.155 10.155 0 003.743.362 5.465 5.465 0 01-.325-1.851c0-3.508 3.359-6.363 7.488-6.363zm-5.163-2.625c.643 0 1.163.528 1.163 1.179s-.52 1.179-1.163 1.179-1.162-.528-1.162-1.18.52-1.178 1.162-1.178zM5.785 8.35c-.642 0-1.163-.528-1.163-1.18s.52-1.178 1.163-1.178c.642 0 1.163.528 1.163 1.179S6.428 8.35 5.785 8.35zM24 14.98c0-3.376-3.24-6.113-7.239-6.113-3.997 0-7.238 2.737-7.238 6.113 0 3.376 3.24 6.113 7.238 6.113a8.46 8.46 0 002.363-.335.72.72 0 01.213-.032c.139 0 .265.042.384.112l1.585.927a.268.268 0 00.14.046c.133 0 .24-.11.24-.245 0-.06-.023-.12-.038-.178l-.326-1.233a.49.49 0 01.177-.554C23.025 18.48 24 16.82 24 14.98zm-9.592-.883c-.535 0-.969-.44-.969-.983s.434-.982.97-.982.968.44.968.982-.433.983-.969.983zm4.845 0c-.535 0-.969-.44-.969-.983s.434-.982.969-.982c.535 0 .969.44.969.982s-.434.983-.97.983z"/></svg>
