<svg xmlns="http://www.w3.org/2000/svg" viewBox="0 0 480 320" fill="none">
  <defs>
    <radialGradient id="glow" cx="50%" cy="50%" r="40%">
      <stop offset="0%" stop-color="#3371fc" stop-opacity="0.3"/>
      <stop offset="100%" stop-color="#3371fc" stop-opacity="0"/>
    </radialGradient>
  </defs>
  <!-- Central glow -->
  <circle cx="240" cy="160" r="120" fill="url(#glow)"/>
  <!-- Outer ring -->
  <circle cx="240" cy="160" r="72" stroke="currentColor" stroke-opacity="0.15" stroke-width="1.5" fill="none"/>
  <circle cx="240" cy="160" r="96" stroke="currentColor" stroke-opacity="0.08" stroke-width="1" fill="none" stroke-dasharray="6 4"/>
  <!-- Inner brand circle -->
  <circle cx="240" cy="160" r="44" fill="currentColor" fill-opacity="0.12"/>
  <!-- Brand symbol: stylized "Y" -->
  <path d="M228 142 L240 162 L252 142" stroke="currentColor" stroke-width="3" stroke-linecap="round" stroke-linejoin="round" fill="none" opacity="0.7"/>
  <line x1="240" y1="162" x2="240" y2="180" stroke="currentColor" stroke-width="3" stroke-linecap="round" opacity="0.7"/>
  <!-- Radiating particles -->
  <circle cx="160" cy="100" r="4" fill="currentColor" fill-opacity="0.2"/>
  <circle cx="320" cy="100" r="3" fill="currentColor" fill-opacity="0.15"/>
  <circle cx="340" cy="200" r="5" fill="currentColor" fill-opacity="0.18"/>
  <circle cx="140" cy="210" r="3.5" fill="currentColor" fill-opacity="0.14"/>
  <circle cx="180" cy="260" r="2.5" fill="currentColor" fill-opacity="0.12"/>
  <circle cx="300" cy="260" r="4" fill="currentColor" fill-opacity="0.16"/>
  <circle cx="360" cy="140" r="2" fill="currentColor" fill-opacity="0.1"/>
  <circle cx="120" cy="150" r="3" fill="currentColor" fill-opacity="0.12"/>
  <!-- Light rays -->
  <line x1="240" y1="88" x2="240" y2="68" stroke="currentColor" stroke-opacity="0.12" stroke-width="1.5" stroke-linecap="round"/>
  <line x1="296" y1="112" x2="310" y2="98" stroke="currentColor" stroke-opacity="0.1" stroke-width="1.5" stroke-linecap="round"/>
  <line x1="184" y1="112" x2="170" y2="98" stroke="currentColor" stroke-opacity="0.1" stroke-width="1.5" stroke-linecap="round"/>
  <line x1="296" y1="208" x2="310" y2="222" stroke="currentColor" stroke-opacity="0.08" stroke-width="1.5" stroke-linecap="round"/>
  <line x1="184" y1="208" x2="170" y2="222" stroke="currentColor" stroke-opacity="0.08" stroke-width="1.5" stroke-linecap="round"/>
</svg>
